<?xml version="1.0" encoding="utf-8"?>
<!-- Generator: Adobe Illustrator 21.1.0, SVG Export Plug-In . SVG Version: 6.00 Build 0)  -->
<svg version="1.1" id="Layer_1" xmlns="http://www.w3.org/2000/svg" xmlns:xlink="http://www.w3.org/1999/xlink" x="0px" y="0px"
	 viewBox="0 0 147.6 16.5" style="enable-background:new 0 0 147.6 16.5;" xml:space="preserve">
<style type="text/css">
	.st0{clip-path:url(#SVGID_1_);}
	.st1{clip-path:url(#SVGID_2_);fill:#FFFFFF;}
	.st2{clip-path:url(#SVGID_2_);}
	.st3{clip-path:url(#SVGID_3_);fill:#FFFFFF;}
</style>
<g>
	<g>
		<defs>
			<polygon id="SVGID_7_" points="0,16.5 147.6,16.5 147.6,0 0,0 0,16.5 			"/>
		</defs>
		<clipPath id="SVGID_1_">
			<use xlink:href="#SVGID_7_"  style="overflow:visible;"/>
		</clipPath>
		<g class="st0">
			<defs>
				<polyline id="SVGID_9_" points="0,0 0,0 0,16.4 147.9,16.4 147.9,0 				"/>
			</defs>
			<clipPath id="SVGID_2_">
				<use xlink:href="#SVGID_9_"  style="overflow:visible;"/>
			</clipPath>
			<path class="st1" d="M4.9,0.9L4.9,0.9L0,16h3.2l1-3.4h5.5l1,3.4h3.5L9.4,0.9H4.9L4.9,0.9L4.9,0.9z M6.9,3.7L6.9,3.7l2,6.5H5
				L6.9,3.7L6.9,3.7L6.9,3.7z"/>
			<g class="st2">
				<defs>
					<polyline id="SVGID_11_" points="0,0 0,0 0,16.4 147.9,16.4 147.9,0 					"/>
				</defs>
				<clipPath id="SVGID_3_">
					<use xlink:href="#SVGID_11_"  style="overflow:visible;"/>
				</clipPath>
				<path class="st3" d="M14.5,10.6L14.5,10.6v-0.2c0-3.5,2.5-5.7,5.7-5.7c2.5,0,4.9,1.1,5.2,4.3h-2.9c-0.2-1.3-1-1.9-2.2-1.9
					c-1.6,0-2.6,1.2-2.6,3.3v0.2c0,2.2,1,3.3,2.7,3.3c1.2,0,2.2-0.7,2.4-2.1h2.7c-0.2,2.6-2.1,4.4-5.3,4.4S14.5,14.2,14.5,10.6
					L14.5,10.6z"/>
				<path class="st3" d="M26.1,10.6L26.1,10.6v-0.2c0-3.5,2.5-5.7,5.7-5.7c2.5,0,4.9,1.1,5.2,4.3h-2.9c-0.2-1.3-1-1.9-2.2-1.9
					c-1.6,0-2.6,1.2-2.6,3.3v0.2c0,2.2,1,3.3,2.7,3.3c1.2,0,2.2-0.7,2.3-2.1H37c-0.2,2.6-2.1,4.4-5.3,4.4
					C28.5,16.2,26.1,14.2,26.1,10.6L26.1,10.6z"/>
				<path class="st3" d="M45.7,9.2L45.7,9.2c-0.1-1.7-0.9-2.4-2.4-2.4c-1.4,0-2.3,0.9-2.5,2.4H45.7L45.7,9.2L45.7,9.2z M37.7,10.6
					L37.7,10.6v-0.2c0-3.5,2.4-5.7,5.7-5.7c2.8,0,5.4,1.7,5.4,5.6v0.8h-7.9c0.1,1.8,1.1,2.9,2.7,2.9c1.4,0,2.1-0.6,2.3-1.5h2.9
					c-0.4,2.3-2.2,3.7-5.3,3.7C40.1,16.2,37.7,14.1,37.7,10.6L37.7,10.6z"/>
				<path class="st3" d="M50.2,4.9L50.2,4.9h3v1.8c0.6-1.1,1.8-2,3.6-2c2.2,0,3.7,1.3,3.7,4.3v7h-3V9.4c0-1.5-0.6-2.2-1.9-2.2
					c-1.3,0-2.3,0.8-2.3,2.4V16h-3V4.9L50.2,4.9L50.2,4.9z"/>
				<path class="st3" d="M63,12.7L63,12.7V7.1h-1.4V4.9H63V2.5h3v2.4h2.3v2.2H66v5.3c0,0.9,0.4,1.3,1.2,1.3c0.5,0,0.8-0.1,1.2-0.2
					v2.3c-0.4,0.1-1,0.3-1.9,0.3C64.2,16.1,63,15,63,12.7L63,12.7z"/>
				<path class="st3" d="M69.5,12L69.5,12V4.9h3v6.7c0,1.5,0.6,2.2,1.9,2.2s2.3-0.8,2.3-2.4V4.9h3v11h-3v-1.8c-0.6,1.1-1.7,2-3.5,2
					C71.1,16.1,69.5,14.9,69.5,12L69.5,12z"/>
				<path class="st3" d="M81.8,4.9L81.8,4.9h3V7c0.7-1.5,1.8-2.3,3.6-2.3v2.8c-2.2,0-3.6,0.7-3.6,2.8V16h-3V4.9L81.8,4.9L81.8,4.9z"
					/>
				<path class="st3" d="M97,9.2L97,9.2c-0.1-1.7-1-2.4-2.4-2.4c-1.4,0-2.3,0.9-2.5,2.4H97L97,9.2L97,9.2z M88.9,10.6L88.9,10.6
					v-0.2c0-3.5,2.4-5.7,5.7-5.7c2.8,0,5.4,1.7,5.4,5.6v0.8H92c0.1,1.8,1.1,2.9,2.7,2.9c1.4,0,2.1-0.6,2.3-1.5h2.9
					c-0.4,2.3-2.3,3.7-5.3,3.7C91.3,16.2,88.9,14.1,88.9,10.6L88.9,10.6z"/>
				<polygon class="st3" points="106.1,0.9 106.1,0.9 108,0.9 108,14.5 114.8,14.5 114.8,15.9 106.1,15.9 106.1,0.9 106.1,0.9 				
					"/>
				<path class="st3" d="M120.1,14.7L120.1,14.7c0.5,0,0.9-0.1,1.3-0.2c0.4-0.1,0.7-0.3,1-0.5c0.3-0.2,0.5-0.5,0.7-0.8
					c0.2-0.3,0.2-0.7,0.2-1.1v-1.4h-1.5c-0.6,0-1.1,0-1.5,0.1c-0.5,0.1-0.9,0.2-1.2,0.4c-0.4,0.2-0.6,0.4-0.8,0.7
					c-0.2,0.3-0.3,0.6-0.3,1c0,0.6,0.2,1,0.5,1.4C118.8,14.6,119.3,14.7,120.1,14.7L120.1,14.7z M119.9,16.1L119.9,16.1
					c-0.5,0-1-0.1-1.4-0.2c-0.5-0.1-0.9-0.3-1.2-0.6c-0.3-0.3-0.6-0.6-0.8-1c-0.2-0.4-0.3-0.9-0.3-1.5c0-0.6,0.2-1.2,0.5-1.6
					c0.3-0.4,0.7-0.8,1.2-1.1c0.5-0.3,1.1-0.5,1.8-0.6c0.7-0.1,1.3-0.2,2.1-0.2h1.6V8.7c0-0.9-0.2-1.5-0.5-1.9
					c-0.4-0.4-1-0.6-1.8-0.6c-1.5,0-2.3,0.6-2.5,2h-1.8c0.1-0.6,0.2-1.2,0.5-1.6c0.3-0.5,0.6-0.8,1-1.1c0.4-0.3,0.9-0.5,1.4-0.6
					c0.5-0.1,1-0.2,1.6-0.2c0.5,0,1,0.1,1.5,0.2c0.5,0.1,0.9,0.3,1.3,0.6c0.4,0.3,0.7,0.7,0.9,1.2c0.2,0.5,0.3,1.2,0.3,1.9v7.2h-1.8
					v-1.4c-0.4,0.5-0.9,0.9-1.4,1.2C121.4,16,120.7,16.1,119.9,16.1L119.9,16.1z"/>
				<path class="st3" d="M132.8,14.7L132.8,14.7c1.1,0,1.9-0.4,2.5-1.1c0.6-0.7,0.9-1.7,0.9-3.1v-0.2c0-0.7-0.1-1.3-0.3-1.8
					c-0.2-0.5-0.4-1-0.7-1.3c-0.3-0.3-0.7-0.6-1.1-0.8c-0.4-0.2-0.9-0.3-1.3-0.3c-0.5,0-1,0.1-1.4,0.2c-0.4,0.2-0.8,0.4-1.2,0.8
					c-0.3,0.4-0.6,0.8-0.7,1.3c-0.2,0.5-0.3,1.1-0.3,1.8v0.2c0,0.7,0.1,1.3,0.3,1.8c0.2,0.5,0.4,1,0.8,1.3c0.3,0.3,0.7,0.6,1.1,0.8
					C131.8,14.6,132.2,14.7,132.8,14.7L132.8,14.7z M132.9,16.1L132.9,16.1c-0.9,0-1.7-0.2-2.3-0.6c-0.6-0.4-1.1-0.9-1.4-1.4v1.8
					h-1.8V-0.3h1.8v7.1c0.2-0.3,0.4-0.5,0.6-0.8c0.3-0.3,0.6-0.5,0.9-0.7c0.3-0.2,0.7-0.3,1.1-0.5c0.4-0.1,0.8-0.2,1.2-0.2
					c0.7,0,1.4,0.1,2,0.4c0.6,0.2,1.2,0.6,1.6,1.1c0.4,0.5,0.8,1.1,1.1,1.7c0.2,0.7,0.4,1.5,0.4,2.3v0.2c0,0.8-0.1,1.6-0.4,2.3
					c-0.2,0.7-0.6,1.3-1,1.8c-0.4,0.5-1,0.9-1.6,1.2C134.4,16,133.7,16.1,132.9,16.1L132.9,16.1z"/>
				<path class="st3" d="M143.8,16.1L143.8,16.1c-1.3,0-2.3-0.3-3.1-0.9c-0.7-0.6-1.2-1.5-1.2-2.7h1.7c0.1,0.7,0.3,1.2,0.7,1.6
					c0.4,0.4,1,0.6,1.9,0.6s1.5-0.2,1.9-0.4c0.4-0.3,0.6-0.7,0.6-1.3c0-0.6-0.2-1-0.7-1.2c-0.4-0.3-1.1-0.5-1.9-0.6
					c-0.7-0.1-1.3-0.3-1.8-0.4c-0.5-0.2-0.9-0.4-1.2-0.7c-0.3-0.2-0.5-0.5-0.6-0.9c-0.1-0.3-0.2-0.8-0.2-1.2c0-0.5,0.1-1,0.3-1.4
					c0.2-0.4,0.5-0.7,0.9-1c0.4-0.3,0.8-0.5,1.2-0.6c0.5-0.1,0.9-0.2,1.3-0.2c0.5,0,1,0.1,1.4,0.2c0.4,0.1,0.8,0.3,1.2,0.5
					c0.4,0.3,0.7,0.6,0.9,1c0.2,0.4,0.4,0.9,0.5,1.5h-1.7c-0.1-0.6-0.4-1.1-0.7-1.3c-0.3-0.3-0.9-0.4-1.6-0.4
					c-0.9,0-1.5,0.3-1.9,0.8c-0.1,0.2-0.2,0.4-0.2,0.5c0,0.4,0,0.7,0.1,0.9c0.1,0.2,0.2,0.3,0.4,0.5c0.2,0.1,0.5,0.3,0.8,0.4
					c0.3,0.1,0.8,0.2,1.3,0.3c0.6,0.1,1.1,0.2,1.6,0.4c0.5,0.1,0.9,0.3,1.2,0.5c0.4,0.2,0.6,0.5,0.8,0.9c0.2,0.4,0.3,0.8,0.3,1.4
					c0,1-0.3,1.8-1,2.4C146.1,15.8,145.1,16.1,143.8,16.1L143.8,16.1z"/>
			</g>
		</g>
	</g>
</g>
</svg>
